# xmcd CD database file generated by OrangeCD 5.1
#
# Track frame offsets:
#	183
#	10958
#	24083
#	35658
#	49358
#	60170
#	70420
#	85020
#	95445
#	107745
#	120083
#	136470
#	150658
#	163008
#	175683
#	186933
#	197933
#	210133
#	222758
#	235108
#	246233
#	256945
#
# Disc length: 3569 seconds
#
# Revision: 3
# Processed by: cddbd v1.4PL0 Copyright (c) Steve Scherf et al.
# Submitted via: OrangeCD 5.1
#
DISCID=1f0def16
DTITLE=Bobby Bare - The Mercury Years
DYEAR=1987
DGENRE=country
TTITLE0=The World is Weighing Heavy on My Mind
TTITLE1=Mama Bake a pie (Papa Kill a Chicken)
TTITLE2=Coal River
TTITLE3=Christian Soldier
TTITLE4=Don't You Ever Get Tired of Hurting Me
TTITLE5=West Virginia Woman
TTITLE6=New York City Snow
TTITLE7=Jesus is the Only One That Loves Us
TTITLE8=Lovin' Her Was Easier
TTITLE9=I Need Some Good News Bad
TTITLE10=Me and Bobby McGee
TTITLE11=A Million Miles to the City
TTITLE12=Just the Other Side of Nowhere
TTITLE13=City Boy, Country Born
TTITLE14=Short and Sweet
TTITLE15=The Puppet and the Parakeet
TTITLE16=Great Society Talking Blues
TTITLE17=The Year That Clayton Delaney Died
TTITLE18=Roses Are Red (My Love)
TTITLE19=Lonely Street
TTITLE20=Crazy Arms
TTITLE21=Jesus Christ, What a Man
EXTD=Bobby Bare: The Mercury Years, 1970-72, Part 2
EXTT0=
EXTT1=
EXTT2=
EXTT3=
EXTT4=
EXTT5=
EXTT6=
EXTT7=
EXTT8=
EXTT9=
EXTT10=
EXTT11=
EXTT12=
EXTT13=
EXTT14=
EXTT15=
EXTT16=
EXTT17=
EXTT18=
EXTT19=
EXTT20=
EXTT21=
PLAYORDER=
